<svg width="144" height="26" viewBox="0 0 144 26" fill="none" xmlns="http://www.w3.org/2000/svg">
<path d="M91.344 6.12262C87.7643 6.12262 84.6225 8.35812 84.1846 8.76312L83.0605 6.46692H75.3921V25.3429H84.8453V12.6771C84.8453 12.6771 85.6276 11.7454 86.7922 11.6011C87.7744 11.4796 88.62 12.0214 88.62 13.4315V25.3429H98.0729V12.9049C98.0729 9.48722 96.6449 6.12012 91.344 6.12012" fill="white"/>
<path d="M63.2175 19.6709C63.2175 19.6709 62.1745 20.6608 60.6074 20.6608C59.3441 20.6608 58.7011 19.9216 58.7011 19.0811C58.7011 16.3773 63.2175 17.3418 63.2175 17.3418V19.6709ZM62.9061 6.12158C58.1239 6.12158 54.3644 7.16968 52.5644 7.99998L53.7593 11.8304L54.3163 11.9747C56.1087 11.3443 58.1947 10.9975 59.8428 10.9975C61.2378 10.9975 63.2175 11.2254 63.2175 13.0405V13.9317C62.3087 13.7773 60.6479 13.6026 59.2884 13.6026C54.015 13.6026 50.415 15.8127 50.415 19.9545C50.415 23.8507 53.4428 25.6887 57.1441 25.6887C59.8226 25.6887 62.3188 24.5443 63.9315 23.1545L64.9973 25.3443H72.6656V13.514C72.6656 9.67848 70.5011 6.12408 62.9087 6.12408" fill="white"/>
<path d="M42.1798 6.1215C39.1469 6.1215 36.5443 7.7114 35.6836 8.3241L35.5823 8.2583C35.6076 7.8253 35.6785 6.4912 35.6785 5.5038V0.402599H26.2254V16.6557C23.8026 18.2532 20.1241 19.6481 17.2203 19.6481C12.3241 19.6481 9.98986 16.8355 9.98986 12.7393C9.98986 7.8253 13.1621 5.9342 16.4735 5.9342C19.0076 5.9342 21.0583 6.6886 21.9924 7.1013L22.676 6.9241L24.081 2.2C21.9469 1.157 18.6329 0 14.7747 0C7.89616 0 0 3.1064 0 12.8456C0 21.8203 7.10376 25.6912 14.8431 25.6912C19.038 25.6912 23.1874 24.3215 26.2228 22.4228V25.3443H35.676V12.6785C35.676 12.6785 36.4583 11.7469 37.6254 11.6026C38.6051 11.481 39.4532 12.0228 39.4532 13.4329V25.3443H48.9038V12.9064C48.9038 9.4886 47.4785 6.1215 42.1747 6.1215" fill="white"/>
<path d="M129.725 13.914C129.806 12.3368 130.828 10.9241 132.322 10.9241C133.816 10.9241 134.732 11.9241 134.646 13.914H129.725ZM143.53 15.5899C143.53 10.0912 139.975 6.12158 132.39 6.12158C125.525 6.12158 120.213 9.64308 120.213 15.9064C120.213 17.0254 120.368 18.0304 120.651 18.9292C118.522 20.2405 116.109 20.7798 114.482 20.7798C110.717 20.7798 109.284 18.5621 109.284 15.9064C109.284 12.5519 111.416 11.0861 113.884 11.0861C115.674 11.0861 117.15 11.5519 118.17 12.0076L118.689 11.8735L119.915 8.00258C118.839 7.37978 115.649 6.12408 112.013 6.12408C107.365 6.12408 99.6658 7.54688 99.6658 15.9089C99.6658 24.2709 107.504 25.6937 112.013 25.6937C115.839 25.6937 119.411 24.7874 123.034 22.6254C125.515 24.838 129.274 25.6937 132.834 25.6937C137.358 25.6937 140.535 24.6405 142.537 23.5545L141.294 19.7874L140.75 19.6456C138.915 20.3671 136.864 20.7849 134.56 20.7849C131.436 20.7849 130.079 19.8557 129.831 17.795H143.418C143.418 17.795 143.527 16.9038 143.527 15.595" fill="white"/>
</svg>
