<svg width="60" height="25" viewBox="0 0 60 25" fill="none" xmlns="http://www.w3.org/2000/svg">
<path d="M11.0153 0.288002L7.453 0.291603C6.5028 0.291603 5.7324 1.0657 5.7324 2.0214V22.1297C5.7324 22.4488 5.4756 22.7075 5.16 22.7075C4.8445 22.7075 4.5859 22.4598 4.5859 22.1407V2.3094C4.5859 1.0345 3.5587 0 2.2929 0C1.0272 0 0 1.0345 0 2.3094V23.3825C0 23.8613 0.385198 24.2502 0.860298 24.2502C1.3354 24.2502 1.7188 23.8613 1.7188 23.3825V2.3094C1.7188 1.9884 1.9756 1.7316 2.2929 1.7316C2.6103 1.7316 2.8671 1.9884 2.8671 2.3094V22.1297C2.8671 23.4045 3.8943 24.4373 5.1619 24.4373C6.4294 24.4373 7.4548 23.4064 7.4548 22.1333V2.5974C7.4548 2.2782 7.7061 2.0196 8.0216 2.0196H11.0153C14.4144 2.0196 17.1696 4.7913 17.1696 8.2124C17.1696 11.6335 14.4144 14.407 11.0153 14.407H10.1275C9.8083 14.407 9.5533 14.1484 9.5533 13.8292C9.5533 13.51 9.8083 13.2532 10.1275 13.2532H11.0282C13.7889 13.2459 16.0213 10.9914 16.0213 8.2124C16.0213 5.4333 13.7797 3.1716 11.0135 3.1716H8.6912C8.2161 3.1716 7.8327 3.5586 7.8327 4.0374C7.8327 4.5162 8.2161 4.9014 8.6912 4.9014H11.0135C12.8295 4.9014 14.3025 6.3854 14.3025 8.2124C14.3025 10.0394 12.8368 11.5161 11.0227 11.5197H10.1256C8.8581 11.5197 7.8327 12.5525 7.8327 13.8292C7.8327 15.1059 8.8581 16.1368 10.1256 16.1368H11.0135C15.3627 16.1368 18.8865 12.5892 18.8865 8.2124C18.8865 3.8356 15.3627 0.286102 11.0135 0.286102" fill="white"/>
<path d="M57.2617 19.534H50.4857C50.0139 19.5414 49.6342 19.9266 49.6342 20.4017C49.6342 20.8768 50.0139 21.2602 50.4857 21.2657H57.2617C57.5767 21.2657 57.8337 21.5243 57.8337 21.8435C57.8337 22.1627 57.5747 22.4195 57.2617 22.4195H44.1623C43.845 22.4195 43.5919 22.1663 43.5919 21.8472V2.3094C43.5919 1.9902 43.8468 1.7316 44.1623 1.7316C44.4778 1.7316 44.7365 1.9884 44.7365 2.3094V19.723C44.7365 20.9979 45.7637 22.0306 47.0294 22.0306C48.2951 22.0306 49.3224 20.9997 49.3224 19.7248V14.407H56.4067C57.6727 14.407 58.6997 13.3743 58.6997 12.0976C58.6997 10.8208 57.6927 9.812 56.4437 9.7918H49.3224V4.9032H56.9737C57.0227 4.9032 59.2667 4.9491 59.2667 2.5956C59.2667 1.3225 58.2407 0.289803 56.9737 0.289803H47.4678C46.9964 0.295303 46.6131 0.682402 46.6131 1.1556C46.6131 1.6289 47.0002 2.0233 47.4734 2.0233C47.4844 2.0233 56.9737 2.0196 56.9737 2.0196C57.2927 2.0196 57.5498 2.2782 57.5498 2.5956C57.5498 2.9129 57.2927 3.1716 56.9737 3.1716H48.464C47.9926 3.1716 47.6091 3.5586 47.6036 4.0301V10.6576C47.6036 11.1364 47.9889 11.5234 48.464 11.5234C48.475 11.5234 56.4067 11.5234 56.4067 11.5234C56.7217 11.5234 56.9788 11.7802 56.9788 12.0976C56.9788 12.4149 56.7217 12.6754 56.4067 12.6754H48.464C47.9889 12.6754 47.6072 13.0643 47.6072 13.5412L47.6036 19.723C47.6036 20.0422 47.3468 20.3008 47.0313 20.3008C46.7157 20.3008 46.4589 20.0458 46.4589 19.7248V2.3094C46.4589 1.0327 45.4299 0 44.1642 0C42.8984 0 41.873 1.0327 41.873 2.3094V21.8417C41.873 23.1165 42.8984 24.1511 44.1642 24.1511H57.2637C58.5307 24.1511 59.5567 23.1184 59.5567 21.8435C59.5567 20.5686 58.5307 19.534 57.2637 19.534" fill="white"/>
<path d="M39.6202 20.8695L35.3333 14.1594C37.6519 12.9267 39.235 10.4742 39.235 7.6492C39.235 3.588 35.9606 0.289803 31.9214 0.289803L27.8179 0.293503C26.8677 0.293503 26.0019 1.0676 26.0019 2.0251V22.1315C26.0019 22.4507 25.7451 22.7093 25.4296 22.7093C25.1141 22.7093 24.8554 22.4507 24.8554 22.1315V2.3094C24.8554 1.0345 23.8282 0 22.5625 0C21.2968 0 20.2695 1.0345 20.2695 2.3094V23.3844C20.2695 23.8613 20.6529 24.2502 21.128 24.2502C21.6031 24.2502 21.9883 23.8613 21.9883 23.3844V2.3094C21.9883 1.9884 22.2433 1.7316 22.5606 1.7316C22.878 1.7316 23.1348 1.9884 23.1348 2.3094V22.1297C23.1348 23.4045 24.162 24.4373 25.4296 24.4373C26.6971 24.4373 27.7225 23.4082 27.7225 22.1333V2.5974C27.7225 2.2782 27.9775 2.0196 28.293 2.0196H31.9214C35.0086 2.0196 37.5125 4.54 37.5125 7.6456C37.5125 10.2228 35.801 12.3947 33.4549 13.0606C33.2164 13.1321 33.0422 13.3559 33.0422 13.6164C33.0422 13.7356 33.077 13.8457 33.1375 13.9356L38.1839 21.8197C38.3545 22.0875 38.2829 22.4415 38.0206 22.6158C37.7528 22.7937 37.3969 22.7167 37.2263 22.4507L30.5694 12.1251L31.9232 12.1214C34.3794 12.1214 36.3697 10.1201 36.3697 7.6456C36.3697 5.171 34.3794 3.1716 31.9232 3.1716H28.9662C28.4875 3.1716 28.1077 3.5586 28.1077 4.0374C28.1077 4.5162 28.4893 4.9014 28.9644 4.9014H31.9232C33.4255 4.9014 34.6491 6.1304 34.6491 7.6437C34.6491 9.1571 33.4274 10.3898 31.9232 10.3898C31.9232 10.3898 28.9772 10.3898 28.9681 10.3898C28.4911 10.3898 28.1077 10.7768 28.1077 11.2556C28.1077 11.4647 28.1793 11.6536 28.3003 11.8022L35.7882 23.3972C36.4834 24.463 37.905 24.7601 38.9635 24.0612C40.0219 23.3623 40.3172 21.9297 39.622 20.864" fill="white"/>
</svg>
