<svg width="42" height="51" viewBox="0 0 42 51" fill="none" xmlns="http://www.w3.org/2000/svg">
<path fill-rule="evenodd" clip-rule="evenodd" d="M25.6829 2.4644H24.4744V40.9226C24.4744 44.9927 24.7161 46.279 25.6835 47.2432C26.4782 47.9924 28.1023 48.3144 29.9454 48.3144H31.8112V50.8851H9.7179V48.3144H11.5724C13.4274 48.3144 15.0402 47.993 15.8469 47.2432C16.8137 46.279 17.0554 44.9934 17.0554 40.9226V2.4644H15.3623C10.6056 2.4644 6.7354 4.9275 4.8809 9.1059C3.8319 11.3558 3.3485 13.6057 2.9455 17.7834L0.618401 17.6765L1.01 0H40.7492L41.0712 17.6765L38.6533 17.7834C37.1322 6.6421 33.4923 2.4644 25.6829 2.4644ZM10.1909 23.223H0V33.6227H10.1909V23.223ZM41.3672 23.223H31.1768V33.6227H41.3672V23.223Z" fill="white"/>
</svg>
