<svg width="424" height="73" viewBox="0 0 424 73" fill="none" xmlns="http://www.w3.org/2000/svg">
<path d="M149.025 26.3796C143.19 26.3796 138.061 30.0225 137.345 30.6787L135.512 26.9378H122.998V57.6875H138.414V37.0537C138.414 37.0537 139.689 35.5359 141.592 35.3009C143.19 35.1051 144.573 35.9864 144.573 38.2779V57.6776H159.989V37.4161C159.989 31.844 157.665 26.3698 149.015 26.3698L149.025 26.3796Z" fill="white"/>
<path d="M102.627 26.377C94.8309 26.377 88.692 28.0809 85.7598 29.4422L87.7113 35.6802L88.6134 35.9152C91.5357 34.887 94.9387 34.319 97.6256 34.319C99.9009 34.319 103.127 34.6911 103.127 37.6487V39.0981C101.647 38.8433 98.94 38.5593 96.7235 38.5593C88.1229 38.5593 82.249 42.163 82.249 48.9104C82.249 55.2563 87.1915 58.2529 93.2226 58.2529C97.5964 58.2529 101.666 56.3921 104.294 54.12L106.03 57.6846H118.543V38.4122C118.543 32.1645 115.013 26.377 102.627 26.377ZM103.137 48.4501C103.137 48.4501 101.441 50.066 98.8811 50.066C96.8215 50.066 95.7724 48.8615 95.7724 47.4905C95.7724 43.0835 103.137 44.6603 103.137 44.6603V48.4501Z" fill="white"/>
<path d="M68.8134 26.3799C63.861 26.3799 59.6246 28.975 58.2126 29.9641L58.0456 29.8564C58.0851 29.1512 58.2028 26.9772 58.2028 25.3712V17.057H42.7867V43.5368C38.8344 46.1418 32.8328 48.4139 28.0961 48.4139C20.1037 48.4139 16.2987 43.8306 16.2987 37.1617C16.2987 29.161 21.4767 26.0763 26.8703 26.0763C31.0087 26.0763 34.3528 27.3004 35.8729 27.9761L36.9907 27.6921L39.2854 19.9949C35.8042 18.291 30.4007 16.4107 24.1048 16.4107C12.886 16.4107 0 21.4736 0 37.338C0 51.9588 11.5915 58.2653 24.2127 58.2653C31.0578 58.2653 37.8245 56.0326 42.7769 52.9381V57.6974H58.1929V37.0639C58.1929 37.0639 59.4678 35.546 61.3704 35.311C62.9688 35.1151 64.3515 35.9965 64.3515 38.2881V57.6879H79.7676V37.4264C79.7676 31.8541 77.4432 26.3799 68.794 26.3799H68.8134Z" fill="white"/>
<path d="M234.14 41.8034C234.14 32.8429 228.345 26.3796 215.969 26.3796C204.769 26.3796 196.11 32.1182 196.11 42.3126C196.11 44.134 196.365 45.7695 196.826 47.2383C193.355 49.3732 189.412 50.2546 186.764 50.2546C180.625 50.2546 178.282 46.6411 178.282 42.3126C178.282 36.8482 181.763 34.4587 185.784 34.4587C188.706 34.4587 191.109 35.2128 192.776 35.957L193.619 35.7416L195.62 29.435C193.864 28.4165 188.667 26.3698 182.734 26.3698C175.153 26.3698 162.591 28.6907 162.591 42.3028C162.591 55.9151 175.379 58.2357 182.734 58.2357C188.971 58.2357 194.806 56.7571 200.71 53.2316C204.76 56.8356 210.889 58.2357 216.694 58.2357C224.069 58.2357 229.257 56.5221 232.522 54.7496L230.492 48.6096L229.6 48.3745C226.609 49.5495 223.265 50.2251 219.499 50.2251C214.409 50.2251 212.193 48.7074 211.781 45.3582H233.945C233.945 45.3582 234.121 43.9088 234.121 41.7739L234.14 41.8034ZM211.614 39.071C211.742 36.5055 213.419 34.2041 215.851 34.2041C218.283 34.2041 219.784 35.8395 219.636 39.071H211.605H211.614Z" fill="white"/>
<path d="M384.542 18.142L379.553 22.3138L384.279 34.4178L397.185 33.5658L400.442 20.933L394.989 17.4565L389.535 13.98L384.542 18.142Z" fill="white"/>
<path d="M412.742 34.7819L402.358 38.0136L397.277 47.6891L400.644 49.0206H400.702C400.819 48.9914 403.703 48.4625 407.987 44.8588C412.304 41.2844 413.342 38.5327 413.393 38.4151L413.411 38.3662L412.742 34.7819Z" fill="white"/>
<path d="M414.694 25.926L416.956 23.0665V23.0078C416.978 22.8902 417.34 19.9622 415.191 14.7915C413.085 9.60131 410.79 7.8092 410.691 7.73087L410.64 7.69171L407.043 7.29999L407.021 18.2289L414.694 25.9163V25.926Z" fill="white"/>
<path d="M288.149 17.0303H277.322V57.6707H288.149V17.0303Z" fill="white"/>
<path d="M366.475 17.0303H351.746L335.134 57.6707H346.911L349.981 49.7579H368.292L371.358 57.6707H383.139L366.468 17.0303H366.475ZM365.015 41.2089H353.227L359.18 25.697L365.015 41.2089Z" fill="white"/>
<path d="M255.452 48.1519V17.0303H244.625V57.6806H270.387L273.761 48.4556L273.77 48.4067V48.1519H255.452Z" fill="white"/>
<path d="M337.338 32.5857H317.352L314.302 40.9194H325.884C324.658 45.3754 322.216 47.0303 322.216 47.0303C319.245 49.4196 314.911 49.2922 314.911 49.2922C307.82 49.2922 303.417 44.7289 303.417 37.384C303.417 34.5149 304.054 32.1744 305.368 30.304C305.368 30.304 308.565 25.2117 316.94 25.8286C319.147 25.9951 323.687 26.6806 326.708 29.403V29.3834V29.4128L330.405 20.0313L330.258 19.9431C329.032 19.1891 327.669 18.5329 326.208 17.9845C322.02 16.4372 318.097 16.1924 317.362 16.1631C312.753 15.8203 308.977 16.7506 307.134 17.3382C303.858 18.2685 300.955 19.8746 298.523 22.1171C294.307 26.0049 292.257 30.9992 292.257 37.4038C292.257 43.8084 294.366 48.8027 298.523 52.6316C302.681 56.4608 308.114 58.3997 314.685 58.3997C322.373 58.3997 328.296 55.8928 332.258 50.9474C333.514 49.4491 334.494 47.8037 335.151 46.0608C335.151 46.0608 336.819 42.4375 337.221 35.9055L337.328 32.6053L337.338 32.5857Z" fill="white"/>
</svg>
